<svg xmlns="http://www.w3.org/2000/svg" width="1200" height="630" viewBox="0 0 1200 630" role="img" aria-label="QQQ's Game Website social cover">
  <defs>
    <linearGradient id="bg" x1="0" y1="0" x2="1" y2="1">
      <stop offset="0%" stop-color="#fff2fa"/>
      <stop offset="55%" stop-color="#ffd7ea"/>
      <stop offset="100%" stop-color="#ff9fcf"/>
    </linearGradient>
    <radialGradient id="glow" cx="0.2" cy="0.15" r="0.8">
      <stop offset="0%" stop-color="#ffffff" stop-opacity="0.75"/>
      <stop offset="100%" stop-color="#ffffff" stop-opacity="0"/>
    </radialGradient>
  </defs>

  <rect width="1200" height="630" fill="url(#bg)"/>
  <rect width="1200" height="630" fill="url(#glow)"/>

  <g fill="#ffffff" opacity="0.85">
    <circle cx="138" cy="95" r="4"/>
    <circle cx="210" cy="72" r="3"/>
    <circle cx="1075" cy="118" r="3.5"/>
    <circle cx="1040" cy="170" r="2.5"/>
    <circle cx="875" cy="540" r="3"/>
  </g>

  <g fill="#ff87bf" opacity="0.5">
    <ellipse cx="170" cy="180" rx="18" ry="10" transform="rotate(-20 170 180)"/>
    <ellipse cx="1025" cy="260" rx="14" ry="9" transform="rotate(24 1025 260)"/>
    <ellipse cx="985" cy="515" rx="12" ry="7.5" transform="rotate(-18 985 515)"/>
    <ellipse cx="300" cy="545" rx="13" ry="8" transform="rotate(28 300 545)"/>
  </g>

  <rect x="820" y="46" width="320" height="64" rx="32" fill="#ffffff" fill-opacity="0.8"/>
  <text x="980" y="87" text-anchor="middle" font-family="Segoe UI, Arial, sans-serif" font-size="30" font-weight="700" fill="#d03f89">anonweb.top</text>

  <text x="90" y="285" font-family="Segoe UI, Arial, sans-serif" font-size="86" font-weight="800" fill="#c92c78">QQQ's GAME WEBSITE</text>
  <text x="92" y="353" font-family="Segoe UI, Arial, sans-serif" font-size="42" font-weight="600" fill="#7f3d61">Anime Game Portal</text>
  <text x="92" y="412" font-family="Segoe UI, Arial, sans-serif" font-size="28" fill="#78465f">Discover anime-inspired indie games, updates, and direct play links.</text>

  <rect x="90" y="465" width="330" height="68" rx="34" fill="#ffffff" fill-opacity="0.92"/>
  <text x="255" y="510" text-anchor="middle" font-family="Segoe UI, Arial, sans-serif" font-size="30" font-weight="700" fill="#cb317b">Play Now</text>
</svg>
